<?xml version="1.0" encoding="UTF-8" standalone="no"?>
<svg
   width="107.458"
   height="150"
   viewBox="0 0 107.458 150"
   version="1.1"
   id="svg1"
   sodipodi:docname="emblem-white.svg"
   inkscape:version="1.4.3 (0d15f75042, 2025-12-25)"
   xmlns:inkscape="http://www.inkscape.org/namespaces/inkscape"
   xmlns:sodipodi="http://sodipodi.sourceforge.net/DTD/sodipodi-0.dtd"
   xmlns="http://www.w3.org/2000/svg"
   xmlns:svg="http://www.w3.org/2000/svg">
  <defs
     id="defs1" />
  <sodipodi:namedview
     id="namedview1"
     pagecolor="#505050"
     bordercolor="#ffffff"
     borderopacity="1"
     inkscape:showpageshadow="0"
     inkscape:pageopacity="0"
     inkscape:pagecheckerboard="1"
     inkscape:deskcolor="#505050"
     inkscape:zoom="2.4831362"
     inkscape:cx="54.165373"
     inkscape:cy="79.939231"
     inkscape:window-width="1376"
     inkscape:window-height="844"
     inkscape:window-x="0"
     inkscape:window-y="0"
     inkscape:window-maximized="1"
     inkscape:current-layer="Group_2629" />
  <g
     id="Group_2629"
     data-name="Group 2629"
     transform="translate(-1196 -8801)">
    <g
       id="Group_2570"
       data-name="Group 2570"
       transform="translate(1161.585 8793.318)">
      <path
         id="Path_1115"
         data-name="Path 1115"
         d="M157.548,18.508c-.116,10.2-2,21.09-1.195,31.29.309,3.964,3.579,5.888,6.505,6.429,2.657.076,5.351.04,7.006,1.423,4.465,3.078,1.888,3.539,5.194,6.773,2.577-1.807,4-5.042,5.158-6.581,1.579-1.271,6-.577,8.044-1.195,1.271-.344,5.194-1.271,5.387-4.08.77-10.545-.385-22.669-.385-34.1-5.118.152-7.887,1.691-9.315,5.619-1.615,4.389-1.114,10.621.233,16.012a25.1,25.1,0,0,1,1,7.042c0,5.118-3.042,6.272-4.389,5.387.268-3.463.729-6.541-.152-10.5a67.5,67.5,0,0,1-2.734-9.816c-1.195-4.85,1.807-11.006,4.2-14.777h-9.467a70.409,70.409,0,0,1,.461,13.663c-.729,4.425-1.038,8.5-2.232,10.854a34,34,0,0,0-.693,10.737c-3.5-.268-5.158-1.7-4.809-4.116-1.114-6.581,1.078-9.583,2.232-16.473-.076-1.731-.233-7.158-1.539-9.623-1.883-3.924-6.156-3.118-8.5-3.964h0Z"
         transform="translate(-86.472 -9.748)"
         fill="#fff"
         fill-rule="evenodd" />
      <path
         id="Path_1116"
         data-name="Path 1116"
         d="M93.15,118.095c11.724.385,23.408-.922,34.859-1.883,6.188-.076,9.378,2.85,12.028,6.465a14.156,14.156,0,0,1,11.876-6.465c11.84.693,22.715,1.5,35.051,1.883v8.89c-6.916-.537-17.639-.886-26.557-2.192-9.762-1.423-17.639-.537-19.409,7.158l-2.189.04c-2.073-14.509-29.712-5.579-45.658-5,0-3.194.04-5.7,0-8.89h0Z"
         transform="translate(-51.592 -64.389)"
         fill="#fff"
         fill-rule="evenodd" />
      <path
         id="Path_1117"
         data-name="Path 1117"
         d="M144.132,161.973c3.15-.77,5.88-2.926,7.725-6.7h35.051V147.54h-39.09c-1.345,3.235-2.73,6.85-7.877,6.89s-6.648-3.655-7.533-6.89L93.09,147.5l.04,7.776h34.859a13.977,13.977,0,0,0,7.957,6.7l-1.269,69.35h-7.841l1.113-70.392H93.09l.04,7.968h27.518l-3.534,70.544,45.658.04-3.534-70.58h27.674v-7.968H151.861l1.269,70.428H145.1l-.961-69.39h0Z"
         transform="translate(-51.559 -81.801)"
         fill="#fff"
         fill-rule="evenodd" />
      <path
         id="Path_1118"
         data-name="Path 1118"
         d="M103.243,209.1C97,215.122,89.6,223.3,89.567,233.478c-.036,8.881,7.543,16.24,7.655,24.119.036,4.125-3.53,9.069-5.167,10.518,1.414-4.832-1.709-10.666-5.762-17.207-3.494-5.65-.076-13.824.966-18.321-4.089,4.684-9.923,11.3-10.071,20.4-.148,8.845,7.99,14.236,9.516,20.513,2.38-.183,5.091.076,7.471,0,5.315-5.351,8.845-11.968,9.623-21.367.819-9.44-3.194-15.162-3.941-21.85-.6-5.127-.6-11.149,2.228-14.567,1.414-1.709,1.526-4.944,1.154-6.617h0Z"
         transform="translate(-42.77 -115.842)"
         fill="#fff"
         fill-rule="evenodd" />
      <path
         id="Path_1119"
         data-name="Path 1119"
         d="M258.595,208.95c6.246,6.022,13.636,14.231,13.677,24.378,0,8.881-6.093,14.419-7.655,22.074-1.19,5.722,2.528,12.339,4.944,12.71-1.414-4.832,2.452-10.854,6.429-17.354,3.454-5.574-.6-12.97-1.633-17.466,4.089,4.684,10.147,10.478,10.294,19.546.112,8.845-7.99,14.231-9.511,20.513-2.38-.188-4.979.076-7.36,0a32.639,32.639,0,0,1-9.735-21.367c-.819-9.44,3.194-15.162,3.937-21.85.6-5.127.6-11.149-2.228-14.567-1.414-1.709-1.526-4.944-1.15-6.617h0Z"
         transform="translate(-142.779 -115.758)"
         fill="#fff"
         fill-rule="evenodd" />
    </g>
  </g>
</svg>
